<svg width="387" height="438" viewBox="0 0 387 438" fill="none" xmlns="http://www.w3.org/2000/svg">
<path d="M387 22.5C387 10.0736 376.926 0 364.5 0H192.525C185.797 0 179.422 3.01103 175.148 8.20743L149.286 39.6513C145.012 44.8477 138.637 47.8587 131.908 47.8587H22.5C10.0736 47.8587 0 57.9323 0 70.3587V415.5C0 427.926 10.0736 438 22.5 438H364.5C376.926 438 387 427.926 387 415.5V22.5Z" fill="white"/>
<path d="M364.5 0.375H192.525C186.116 0.375 180.033 3.15365 175.838 7.97266L175.438 8.44531L149.575 39.8896C145.23 45.1725 138.748 48.2334 131.908 48.2334H22.5C10.2808 48.2334 0.375157 58.1392 0.375 70.3584V415.5C0.375 427.719 10.2807 437.625 22.5 437.625H364.5C376.719 437.625 386.625 427.719 386.625 415.5V22.5C386.625 10.4717 377.027 0.684844 365.071 0.381836L364.5 0.375Z" stroke="#8BB1E1" stroke-opacity="0.12" stroke-width="0.75"/>
</svg>
