<svg width="8" height="10" viewBox="0 0 8 10" fill="none" xmlns="http://www.w3.org/2000/svg">
<path d="M4.91438 0.633125C4.74813 0.466875 4.525 0.375 4.29313 0.375H1.15625C0.675 0.375 0.28125 0.76875 0.28125 1.25V8.25C0.28125 8.73125 0.670625 9.125 1.15187 9.125H6.40625C6.8875 9.125 7.28125 8.73125 7.28125 8.25V3.36312C7.28125 3.13125 7.18937 2.90812 7.02312 2.74625L4.91438 0.633125ZM5.09375 7.375H2.46875C2.22812 7.375 2.03125 7.17812 2.03125 6.9375C2.03125 6.69688 2.22812 6.5 2.46875 6.5H5.09375C5.33437 6.5 5.53125 6.69688 5.53125 6.9375C5.53125 7.17812 5.33437 7.375 5.09375 7.375ZM5.09375 5.625H2.46875C2.22812 5.625 2.03125 5.42812 2.03125 5.1875C2.03125 4.94688 2.22812 4.75 2.46875 4.75H5.09375C5.33437 4.75 5.53125 4.94688 5.53125 5.1875C5.53125 5.42812 5.33437 5.625 5.09375 5.625ZM4.21875 3V1.03125L6.625 3.4375H4.65625C4.41563 3.4375 4.21875 3.24062 4.21875 3Z" fill="white"/>
</svg>
